<svg xmlns="http://www.w3.org/2000/svg" width="920" height="180" viewBox="0 0 920 180" fill="none"><path d="M217.449 54.0823C208.67 54.0823 202.039 56.0943 197.558 60.1184C193.168 64.0511 190.973 69.8129 190.973 77.4038V88.3786H234.872V100.177H190.973V139H177.254V77.2666C177.254 66.2003 180.73 57.5576 187.68 51.3386C194.722 45.0281 204.508 41.8728 217.038 41.8728C222.525 41.8728 227.647 42.513 232.403 43.7934C237.158 44.9823 241.274 46.7657 244.749 49.1436L240.222 60.53C234.095 56.2315 226.504 54.0823 217.449 54.0823ZM286.34 139.823C279.115 139.823 272.622 138.223 266.86 135.022C261.098 131.821 256.571 127.431 253.278 121.852C250.077 116.182 248.477 109.78 248.477 102.646C248.477 95.5123 250.077 89.156 253.278 83.5771C256.571 77.9068 261.098 73.5169 266.86 70.4073C272.622 67.2063 279.115 65.6059 286.34 65.6059C293.565 65.6059 300.013 67.2063 305.683 70.4073C311.445 73.5169 315.926 77.9068 319.127 83.5771C322.42 89.156 324.066 95.5123 324.066 102.646C324.066 109.78 322.42 116.182 319.127 121.852C315.926 127.431 311.445 131.821 305.683 135.022C300.013 138.223 293.565 139.823 286.34 139.823ZM286.34 128.3C291.004 128.3 295.166 127.248 298.824 125.144C302.574 122.949 305.5 119.931 307.604 116.09C309.707 112.157 310.759 107.676 310.759 102.646C310.759 97.6158 309.707 93.1801 307.604 89.3389C305.5 85.4063 302.574 82.3882 298.824 80.2847C295.166 78.1812 291.004 77.1294 286.34 77.1294C281.676 77.1294 277.469 78.1812 273.719 80.2847C270.061 82.3882 267.134 85.4063 264.939 89.3389C262.836 93.1801 261.784 97.6158 261.784 102.646C261.784 107.676 262.836 112.157 264.939 116.09C267.134 119.931 270.061 122.949 273.719 125.144C277.469 127.248 281.676 128.3 286.34 128.3ZM354.901 78.5013C357.187 74.2943 360.571 71.0933 365.052 68.8983C369.534 66.7033 374.975 65.6059 381.377 65.6059V78.3641C380.646 78.2726 379.64 78.2269 378.359 78.2269C371.226 78.2269 365.601 80.3761 361.485 84.6746C357.461 88.8816 355.449 94.9178 355.449 102.783V139H342.28V66.2918H354.901V78.5013ZM488.563 65.6059C497.709 65.6059 504.934 68.2581 510.238 73.5626C515.634 78.8671 518.332 86.7324 518.332 97.1585V139H505.162V98.6675C505.162 91.6253 503.516 86.3208 500.224 82.754C497.023 79.1872 492.404 77.4038 486.368 77.4038C479.692 77.4038 474.387 79.5073 470.455 83.7143C466.522 87.8299 464.556 93.7746 464.556 101.548V139H451.386V98.6675C451.386 91.6253 449.74 86.3208 446.447 82.754C443.246 79.1872 438.628 77.4038 432.591 77.4038C425.915 77.4038 420.611 79.5073 416.678 83.7143C412.745 87.8299 410.779 93.7746 410.779 101.548V139H397.609V66.2918H410.23V77.1294C412.882 73.3797 416.358 70.5445 420.656 68.6239C424.955 66.6119 429.848 65.6059 435.335 65.6059C441.005 65.6059 446.036 66.7491 450.426 69.0355C454.815 71.3219 458.199 74.6601 460.577 79.05C463.321 74.843 467.116 71.5506 471.964 69.1727C476.902 66.7948 482.435 65.6059 488.563 65.6059ZM581.114 65.6059C588.156 65.6059 594.467 67.1606 600.045 70.2701C605.624 73.3797 609.968 77.7239 613.078 83.3028C616.279 88.8816 617.88 95.3293 617.88 102.646C617.88 109.962 616.279 116.456 613.078 122.126C609.968 127.705 605.624 132.049 600.045 135.159C594.467 138.268 588.156 139.823 581.114 139.823C575.718 139.823 570.779 138.771 566.298 136.668C561.816 134.564 558.112 131.501 555.186 127.476V139H542.565V37.2085H555.735V77.2666C558.661 73.4254 562.319 70.5445 566.709 68.6239C571.099 66.6119 575.901 65.6059 581.114 65.6059ZM580.016 128.3C584.681 128.3 588.842 127.248 592.5 125.144C596.25 122.949 599.177 119.931 601.28 116.09C603.475 112.157 604.573 107.676 604.573 102.646C604.573 97.6158 603.475 93.1801 601.28 89.3389C599.177 85.4063 596.25 82.3882 592.5 80.2847C588.842 78.1812 584.681 77.1294 580.016 77.1294C575.444 77.1294 571.282 78.1812 567.532 80.2847C563.783 82.3882 560.856 85.4063 558.753 89.3389C556.649 93.1801 555.597 97.6158 555.597 102.646C555.597 107.676 556.649 112.157 558.753 116.09C560.856 119.931 563.783 122.949 567.532 125.144C571.282 127.248 575.444 128.3 580.016 128.3ZM668.863 128.3C677.552 128.3 684.548 125.373 689.852 119.52L696.986 128.025C693.785 131.866 689.715 134.793 684.777 136.805C679.929 138.817 674.488 139.823 668.452 139.823C660.769 139.823 653.956 138.268 648.011 135.159C642.066 131.958 637.448 127.522 634.155 121.852C630.954 116.182 629.354 109.78 629.354 102.646C629.354 95.6037 630.909 89.2475 634.018 83.5771C637.219 77.9068 641.563 73.5169 647.051 70.4073C652.63 67.2063 658.894 65.6059 665.845 65.6059C672.43 65.6059 678.42 67.1149 683.816 70.133C689.212 73.0596 693.511 77.2209 696.712 82.6168C699.913 88.0128 701.559 94.2319 701.65 101.274L643.895 112.523C645.725 117.553 648.788 121.44 653.087 124.184C657.477 126.928 662.736 128.3 668.863 128.3ZM665.845 76.7179C661.272 76.7179 657.157 77.7696 653.498 79.8731C649.932 81.9766 647.142 84.949 645.13 88.7902C643.118 92.5399 642.112 96.9298 642.112 101.96V103.332L688.618 94.552C687.429 89.2475 684.777 84.949 680.661 81.6565C676.546 78.3641 671.607 76.7179 665.845 76.7179ZM732.696 78.5013C734.983 74.2943 738.366 71.0933 742.848 68.8983C747.329 66.7033 752.771 65.6059 759.173 65.6059V78.3641C758.441 78.2726 757.435 78.2269 756.155 78.2269C749.021 78.2269 743.397 80.3761 739.281 84.6746C735.257 88.8816 733.245 94.9178 733.245 102.783V139H720.075V66.2918H732.696V78.5013ZM788.026 78.5013C790.312 74.2943 793.696 71.0933 798.177 68.8983C802.659 66.7033 808.101 65.6059 814.503 65.6059V78.3641C813.771 78.2726 812.765 78.2269 811.484 78.2269C804.351 78.2269 798.726 80.3761 794.611 84.6746C790.587 88.8816 788.574 94.9178 788.574 102.783V139H775.405V66.2918H788.026V78.5013ZM899.442 66.2918V129.123C899.442 141.835 896.469 151.209 890.525 157.246C884.58 163.373 875.663 166.437 863.773 166.437C857.28 166.437 851.061 165.477 845.116 163.556C839.263 161.727 834.462 159.075 830.712 155.599L837.16 145.448C840.361 148.374 844.202 150.661 848.683 152.307C853.256 153.953 858.057 154.776 863.088 154.776C871.044 154.776 876.898 152.764 880.647 148.74C884.397 144.808 886.272 138.726 886.272 130.495V125.144C883.62 128.62 880.19 131.318 875.983 133.238C871.776 135.067 867.203 135.982 862.264 135.982C852.57 135.982 844.933 133.33 839.354 128.025C833.776 122.721 830.986 114.855 830.986 104.429V66.2918H844.156V102.92C844.156 109.871 845.848 115.175 849.232 118.834C852.616 122.401 857.463 124.184 863.773 124.184C870.724 124.184 876.212 122.08 880.236 117.873C884.26 113.666 886.272 107.722 886.272 100.039V66.2918H899.442Z" fill="#252525"></path><circle cx="65.664" cy="89.8561" r="65.664" fill="white"></circle><circle cx="65.664" cy="89.8561" r="65.664" fill="url(#paint0_linear_386_1593)"></circle><path d="M105.531 77.8731L111.014 75.6911C121.785 71.4051 120.529 62.8835 108.226 56.6669L101.959 53.5001L100.141 47.441C96.5689 35.5389 87.3953 32.1759 79.6627 39.9179L75.7236 43.8618L69.1164 42.299C56.1376 39.2292 51.7244 45.6724 59.2479 56.6738L63.0805 62.2781L60.8154 67.3713C56.3662 77.3761 62.8122 84.7212 75.1946 83.7784L81.5024 83.2982L86.7097 88.0087C96.9387 97.2619 105.336 95.3582 105.465 83.7742L105.531 77.8731Z" fill="url(#paint1_linear_386_1593)"></path><defs><linearGradient id="paint0_linear_386_1593" x1="101.952" y1="43.2001" x2="20.736" y2="138.24" gradientUnits="userSpaceOnUse"><stop stop-color="#D1E9FF"></stop><stop offset="1" stop-color="#838DE6"></stop></linearGradient><linearGradient id="paint1_linear_386_1593" x1="84.3588" y1="21.393" x2="65.8388" y2="69.6766" gradientUnits="userSpaceOnUse"><stop stop-color="#2C1A99"></stop><stop offset="1" stop-color="#BD8DFB"></stop></linearGradient></defs></svg>