<?xml version="1.0" encoding="UTF-8"?>
<svg id="Layer_2" xmlns="http://www.w3.org/2000/svg" viewBox="0 0 361.66 86.4">
  <defs>
    <style>
      .cls-1 {
        fill: #8b00cb;
      }
    </style>
  </defs>
  <g id="Layer_2-2" data-name="Layer_2">
    <g>
      <polygon class="cls-1" points="86.4 50.56 86.4 64.64 43.45 86.4 0 65.35 0 50.56 14.15 43.2 14.32 57.53 43.2 71.89 72.25 57.67 43.2 43.2 43.2 28.8 86.4 50.56"/>
      <polygon class="cls-1" points="0 35.84 0 21.76 42.95 0 86.4 21.05 86.4 35.84 72.25 43.2 72.08 28.87 43.2 14.51 14.15 28.73 43.2 43.2 43.2 57.6 0 35.84"/>
    </g>
    <g>
      <path class="cls-1" d="M125.35,40.68c3.69,2.44,5.37,6.06,5.04,10.87-.25,3.56-1.79,6.44-4.6,8.64-2.79,2.21-6.15,3.16-10.08,2.87-3.63-.25-6.65-1.59-9.05-4.01-.74-.74-1.11-1.63-1.11-2.67.02-1.04.39-1.92,1.11-2.67.74-.72,1.63-1.08,2.67-1.08s1.94.37,2.67,1.11c1.07,1.09,2.49,1.7,4.25,1.82,1.86.14,3.4-.22,4.63-1.08,1.23-.84,1.89-1.99,1.99-3.46.08-1.13-.06-2.04-.41-2.72-.25-.51-.66-.95-1.23-1.32-1.23-.82-2.67-1.29-4.31-1.41-3.95-.27-7.15-1.7-9.61-4.28s-3.56-5.64-3.31-9.2c.25-3.57,1.79-6.46,4.6-8.64,2.79-2.21,6.15-3.17,10.08-2.9,1.99.14,3.79.63,5.39,1.46,1.17.61,2.36,1.48,3.57,2.61.76.7,1.16,1.58,1.2,2.64.04,1.04-.3,1.93-1.03,2.7-.7.76-1.57,1.15-2.61,1.17-1.05.04-1.96-.29-2.72-1-1.35-1.27-2.79-1.95-4.34-2.05-1.86-.14-3.4.22-4.63,1.05-1.23.86-1.89,2.02-1.99,3.49-.12,1.46.38,2.71,1.49,3.72,1.09,1.02,2.57,1.59,4.42,1.73h.03c2.93.2,5.56,1.06,7.88,2.61Z"/>
      <path class="cls-1" d="M144.27,43.9v14.91c0,1.05-.36,1.94-1.08,2.67-.74.74-1.63,1.11-2.67,1.11s-1.94-.37-2.67-1.11c-.74-.72-1.11-1.61-1.11-2.67V24.77c0-1.04.37-1.91,1.11-2.64.72-.74,1.61-1.11,2.67-1.11s1.92.37,2.67,1.11,1.08,1.6,1.08,2.64v14.44c.06-.08.13-.16.21-.23l15.91-16.79c.7-.76,1.58-1.15,2.64-1.17,1.04-.02,1.92.32,2.67,1.03.76.72,1.16,1.6,1.2,2.64.02,1.04-.33,1.93-1.05,2.7l-13.48,14.21,13.54,14.68c.7.76,1.03,1.67.97,2.72-.04,1.04-.44,1.9-1.2,2.61s-1.66,1.04-2.7,1-1.91-.44-2.64-1.2l-15.88-17.29c-.06-.06-.12-.13-.18-.21Z"/>
      <path class="cls-1" d="M203.83,21.58c.88.57,1.44,1.36,1.67,2.37.23,1,.08,1.94-.47,2.84l-12.98,20.74v11.28c0,1.05-.36,1.94-1.08,2.67-.74.74-1.63,1.11-2.67,1.11s-1.92-.37-2.67-1.11c-.74-.72-1.11-1.61-1.11-2.67v-11.28l-12.95-20.74c-.55-.9-.7-1.85-.47-2.84.23-1.02.79-1.81,1.67-2.37.88-.55,1.83-.7,2.84-.47s1.8.79,2.34,1.67l10.34,16.55,10.34-16.55c.55-.88,1.33-1.44,2.34-1.67s1.96-.08,2.84.47Z"/>
      <path class="cls-1" d="M239.05,34.85c0,2.79-.77,5.35-2.31,7.68-1.52,2.27-3.53,3.94-6.01,5.01l6.8,9.02c.64.82.89,1.75.73,2.78-.14,1.04-.62,1.87-1.44,2.49-.84.63-1.78.87-2.81.73-1.02-.16-1.85-.64-2.49-1.46l-9.38-12.42h-4.95v10.14c0,1.05-.37,1.94-1.11,2.67-.72.74-1.6,1.11-2.64,1.11s-1.94-.37-2.67-1.11c-.74-.72-1.11-1.61-1.11-2.67V24.77c0-1.04.37-1.92,1.11-2.67.72-.72,1.61-1.08,2.67-1.08h.18l.21.03.18-.03h11.34c3.77.02,7,1.39,9.7,4.1,2.68,2.7,4.01,5.94,4.01,9.73ZM225.28,41.15c1.72-.02,3.19-.64,4.42-1.88,1.21-1.23,1.82-2.71,1.82-4.42s-.61-3.19-1.82-4.42c-1.23-1.23-2.7-1.86-4.39-1.88h-8.12v12.6h8.09Z"/>
      <path class="cls-1" d="M250.36,60.37c-.43.94-1.12,1.59-2.08,1.96-.98.37-1.94.34-2.9-.09-.94-.43-1.59-1.12-1.96-2.08-.37-.98-.34-1.94.09-2.9l15.35-34.04c.61-1.46,1.75-2.2,3.43-2.2s2.82.73,3.43,2.2l15.35,34.04c.43.96.46,1.92.09,2.9-.37.96-1.04,1.65-1.99,2.08-.94.43-1.89.46-2.87.09s-1.68-1.03-2.11-1.96l-2.26-5.07-.09.03h-19.19l-2.29,5.04ZM268.52,47.8l-6.24-13.86-6.24,13.86h12.48Z"/>
      <path class="cls-1" d="M289.29,21.02c1.04,0,1.91.37,2.64,1.11.74.72,1.11,1.61,1.11,2.67v34.01c0,1.05-.37,1.94-1.11,2.67-.72.74-1.6,1.11-2.64,1.11s-1.94-.37-2.67-1.11c-.74-.72-1.11-1.61-1.11-2.67V24.8c0-1.05.37-1.94,1.11-2.67.72-.74,1.61-1.11,2.67-1.11Z"/>
      <path class="cls-1" d="M319.91,55.06c1.04,0,1.92.36,2.67,1.08.72.74,1.08,1.63,1.08,2.67s-.36,1.94-1.08,2.67c-.74.74-1.63,1.11-2.67,1.11h-17.23c-1.05,0-1.94-.37-2.67-1.11-.74-.72-1.11-1.61-1.11-2.67V24.8c0-1.05.37-1.94,1.11-2.67.72-.74,1.61-1.11,2.67-1.11s1.91.37,2.64,1.11c.74.72,1.11,1.61,1.11,2.67v30.26h13.48Z"/>
      <path class="cls-1" d="M357.85,55.06c1.04,0,1.92.36,2.67,1.08.72.74,1.08,1.63,1.08,2.67s-.36,1.94-1.08,2.67c-.74.74-1.63,1.11-2.67,1.11h-23.94c-1.52,0-2.64-.67-3.34-2.02-.7-1.37-.62-2.68.26-3.93l19.75-28.1h-16.67c-1.04,0-1.92-.37-2.67-1.11-.72-.72-1.08-1.6-1.08-2.64s.36-1.94,1.08-2.67,1.63-1.11,2.67-1.11h23.94c1.52,0,2.64.67,3.34,2.02.7,1.37.62,2.67-.26,3.9l-19.75,28.12h16.67Z"/>
    </g>
  </g>
</svg>