<?xml version="1.0" encoding="utf-8"?>
<svg width="143" height="30" viewBox="0 0 143 30" fill="none" xmlns="http://www.w3.org/2000/svg">
<g clip-path="url(#clip0_61_2456)">
<path fill-rule="evenodd" clip-rule="evenodd" d="M6.30039 6H0.900391V10.5H7.20039V24H11.7004V11.4V6H6.30039Z" fill="#252525"/>
<path d="M14.3996 6H12.5996V15H14.3996V6Z" fill="#5C89FC"/>
<path d="M17.0998 6H15.2998V11.4H17.0998V6Z" fill="#252525"/>
<path d="M123.182 23.9501H126.927V11.5001H123.182V23.9501ZM122.909 7.25008C122.909 8.50012 123.802 9.42508 125.042 9.42508C126.282 9.42508 127.2 8.50012 127.2 7.25008C127.2 6.0001 126.282 5.1001 125.042 5.1001C123.802 5.1001 122.909 6.0001 122.909 7.25008Z" fill="#5C89FC"/>
<path d="M129.028 17.7251C129.028 21.525 131.782 24.275 135.627 24.275C139.447 24.275 142.2 21.525 142.2 17.7251C142.2 13.9001 139.447 11.175 135.627 11.175C131.782 11.175 129.028 13.9001 129.028 17.7251ZM132.774 17.7251C132.774 15.875 133.965 14.525 135.627 14.525C137.264 14.525 138.455 15.875 138.455 17.7251C138.455 19.575 137.264 20.925 135.627 20.925C133.965 20.925 132.774 19.575 132.774 17.7251Z" fill="#5C89FC"/>
<path d="M24.6233 11.1748C20.8031 11.1748 18 13.8998 18 17.7498C18 21.4748 20.6047 24.2248 24.5737 24.2248C27.9225 24.2248 30.5023 22.2748 30.7256 19.5748H27.4511C27.3767 20.3998 26.3349 20.9998 24.9209 20.9998C23.2341 20.9998 22.1426 20.1498 21.7457 18.8498H30.3287C30.6016 18.1248 30.7008 17.5248 30.7008 16.8748C30.7008 13.5498 28.2202 11.1748 24.6233 11.1748ZM21.8946 16.2248C22.3659 15.0998 23.383 14.3748 24.6728 14.3748C25.9876 14.3748 26.9054 15.0998 27.2031 16.2248H21.8946Z" fill="#252525"/>
<path d="M32.319 19.4748C32.1701 19.7998 32.0957 20.0998 32.0957 20.4748C32.0957 22.6748 34.5763 24.2998 38.0244 24.2998C41.5717 24.2998 44.0275 22.5998 44.0275 19.9998C44.0275 17.0998 40.9763 16.6248 38.7934 16.1998C37.0569 15.8748 35.8414 15.7248 35.8414 15.0998C35.8414 14.6248 36.6352 14.2998 37.9003 14.2998C39.3143 14.2998 40.0585 14.7248 40.0585 15.4248C40.0585 15.5498 40.0337 15.7248 39.9592 15.9498H43.3081C43.4569 15.6248 43.5066 15.3248 43.5066 14.9998C43.5066 12.7498 41.1996 11.1748 37.95 11.1748C34.6011 11.1748 32.2942 12.8498 32.2942 15.4998C32.2942 18.3998 35.0476 18.8248 37.2802 19.2498C39.0663 19.5748 40.4802 19.7748 40.4802 20.3498C40.4802 20.7998 39.5376 21.1498 38.074 21.1498C36.4368 21.1498 35.5438 20.7248 35.5438 19.9998C35.5438 19.8748 35.5686 19.6748 35.6678 19.4748H32.319Z" fill="#252525"/>
<path d="M53.5859 14.4498V11.4999H50.7083V7.7749L46.9626 9.22486V11.4999H45.0029V14.4498H46.9626V19.9998C46.9626 22.5749 48.4509 24.1749 50.9068 24.1749C51.9239 24.1749 52.9409 23.8998 53.5859 23.4749V20.6999C53.3378 20.9249 52.8169 21.0249 52.3703 21.0249C51.3285 21.0249 50.7083 20.3999 50.7083 19.3499V14.4498H53.5859Z" fill="#252525"/>
<path d="M55.0635 17.7248C55.0635 21.5248 57.817 24.2748 61.6622 24.2748C65.4824 24.2748 68.2358 21.5248 68.2358 17.7248C68.2358 13.8998 65.4824 11.1748 61.6622 11.1748C57.817 11.1748 55.0635 13.8998 55.0635 17.7248ZM58.8092 17.7248C58.8092 15.8748 60.0002 14.5248 61.6622 14.5248C63.299 14.5248 64.49 15.8748 64.49 17.7248C64.49 19.5748 63.299 20.9248 61.6622 20.9248C60.0002 20.9248 58.8092 19.5748 58.8092 17.7248Z" fill="#252525"/>
<path d="M74.0866 23.9498V17.4498C74.0866 15.7498 75.2032 14.5248 76.741 14.5248C77.9566 14.5248 78.676 15.2498 78.676 16.4498V23.9498H82.4218V17.4498C82.4218 15.7498 83.5378 14.5248 85.0762 14.5248C86.2666 14.5248 87.0106 15.2498 87.0106 16.4498V23.9498H90.7564V15.4498C90.7564 12.7998 88.9456 11.1748 86.1178 11.1748C84.3568 11.1748 82.8184 11.7998 81.727 12.8748C80.983 11.7748 79.7176 11.1748 78.0808 11.1748C76.4932 11.1748 75.1036 11.7248 74.0866 12.6998V11.4998H70.3408V23.9498H74.0866Z" fill="#252525"/>
<path d="M97.5688 16.3748C94.5922 16.3748 92.707 17.8498 92.707 20.1748C92.707 22.6498 94.8154 24.2998 97.5442 24.2998C99.1066 24.2998 100.446 23.7748 101.414 22.8498C101.934 23.6748 102.852 24.1748 103.969 24.1748C104.688 24.1748 105.457 23.9748 106.028 23.5998V21.0498C105.829 21.1748 105.606 21.2248 105.457 21.2248C104.986 21.2248 104.639 20.8748 104.639 20.3498V15.8748C104.639 13.1498 102.257 11.1748 99.0574 11.1748C95.857 11.1748 93.4264 13.1498 93.2026 15.8748H96.5518C96.6262 15.0748 97.519 14.4498 98.7592 14.4498C100.025 14.4498 100.967 15.0998 100.967 15.9498V16.3748H97.5688ZM96.4528 19.9248C96.4528 19.2748 97.0726 18.8998 98.0896 18.8998H100.967C100.868 20.1498 99.454 21.0498 98.0896 21.0498C97.1224 21.0498 96.4528 20.5998 96.4528 19.9248Z" fill="#252525"/>
<path d="M114.995 14.4498V11.4999H112.118V7.7749L108.372 9.22486V11.4999H106.412V14.4498H108.372V19.9998C108.372 22.5749 109.86 24.1749 112.316 24.1749C113.333 24.1749 114.35 23.8998 114.995 23.4749V20.6999C114.747 20.9249 114.226 21.0249 113.78 21.0249C112.738 21.0249 112.118 20.3999 112.118 19.3499V14.4498H114.995Z" fill="#252525"/>
<path d="M116.745 21.7999C116.745 23.1749 117.738 24.1749 119.101 24.1749C120.466 24.1749 121.434 23.1749 121.434 21.7999C121.434 20.4499 120.466 19.45 119.101 19.45C117.738 19.45 116.745 20.4499 116.745 21.7999Z" fill="#252525"/>
</g>
<defs>
<clipPath id="clip0_61_2456">
<rect width="142.8" height="30" fill="white"/>
</clipPath>
</defs>
</svg>
